PathFileType	4	(X/Y/Z)	Patient5_TMGait_0pt45_1_right_09.trc.trc
DataRate	CameraRate	NumFrames	NumMarkers	Units	OrigDataRate	OrigDataStartFrame	OrigNumFrames
58.091286307054	58.091286307054	4	32	mm	58.091286307054	1	       141
Frame#	Time	R.ASIS			L.ASIS			Chest			R.Shoulder			Neck			L.Shoulder			L.Elbow			L.Wrist			R.Elbow			R.Wrist			L.Thigh.Superior			L.Thigh.Lateral			L.Thigh.Inferior			L.Patella			L.Shank.Superior			L.Shank.Lateral			L.Shank.Inferior			L.Heel			L.Midfoot.Lateral			L.Midfoot.Superior			L.Toe			R.Thigh.Superior			R.Thigh.Lateral			R.Thigh.Inferior			R.Patella			R.Shank.Superior			R.Shank.Lateral			R.Shank.Inferior			R.Heel			R.Midfoot.Lateral			R.Midfoot.Superior			R.Toe			
		X1	Y1	Z1	X2	Y2	Z2	X3	Y3	Z3	X4	Y4	Z4	X5	Y5	Z5	X6	Y6	Z6	X7	Y7	Z7	X8	Y8	Z8	X9	Y9	Z9	X10	Y10	Z10	X11	Y11	Z11	X12	Y12	Z12	X13	Y13	Z13	X14	Y14	Z14	X15	Y15	Z15	X16	Y16	Z16	X17	Y17	Z17	X18	Y18	Z18	X19	Y19	Z19	X20	Y20	Z20	X21	Y21	Z21	X22	Y22	Z22	X23	Y23	Z23	X24	Y24	Z24	X25	Y25	Z25	X26	Y26	Z26	X27	Y27	Z27	X28	Y28	Z28	X29	Y29	Z29	X30	Y30	Z30	X31	Y31	Z31	X32	Y32	Z32	

1	14.590000000000	1023.975203009064	1020.077621586726	541.097112157940	1046.758260257240	966.348842843198	302.244796284848	1105.036553948305	1450.789717563817	414.740053459789	972.023707593962	1525.148594114800	550.722038915949	994.586930134778	1576.685854491662	366.130535623364	1096.732469115973	1510.365151373726	210.490346250198	1097.331527120152	1182.482226490736	88.917572598425	1249.512422095681	940.697910982621	134.102654380745	850.881405899469	1212.311743977693	678.199769942719	1075.080903894673	1028.700660139657	655.918448932379	1052.619734364433	744.664566402565	309.251458615387	974.363117239826	678.548573854821	272.001020836583	1040.323561848915	617.096199063146	336.294066232336	1029.694900837296	501.363492071931	345.856528274549	977.311313052775	403.196396061075	372.877114512146	904.893680238355	335.215210713620	298.976235614457	938.029754206730	282.666444866644	388.030638768141	791.389821714827	52.999275189728	398.720980731446	882.792643851994	28.072252368818	343.903216328012	979.029043345049	89.257186569966	391.546808575780	1084.633045207758	43.969835056383	403.805199367555	1094.929253311025	829.060833793616	599.876822815214	1039.083501362093	741.395625335837	662.158158385987	1140.028943526190	708.140968884807	605.297633193991	1171.442801424156	616.353749156868	655.798290364075	1139.108512593910	501.296310410966	624.201541035364	1057.335853278707	435.598102107061	699.571564670848	1123.209184175641	361.476649637469	630.895029387103	1011.899201925996	132.899193231558	602.751910366607	1083.864509555213	101.289690174636	682.384674944658	1188.009051817477	172.204792802380	678.141711415552	1292.556580141651	132.657548500046	685.739188456853	
2	14.607214285714	1023.044281334679	1019.285270887122	541.189339502923	1043.451334237491	966.492036681459	302.133241561395	1101.704952589646	1450.855085622524	414.330927118331	969.640694528383	1525.038763173576	551.476339208543	990.689221716991	1576.459272986494	366.684667453995	1091.453808535903	1510.231182110564	210.165929323825	1091.464364093916	1181.863295058274	89.650463444733	1243.826879978652	940.420837691593	135.993277549917	849.021476275796	1212.551189216833	680.237012979981	1073.624346558969	1029.401204924409	658.179613208293	1048.704942200446	744.271795265152	309.637651805070	969.588221062191	678.697264738980	272.734242902334	1035.453837972326	616.612846539768	336.417629485098	1023.796782014027	501.015524100350	345.805224968995	971.016057726937	403.137682062585	373.016261616895	897.767079912407	335.727805845676	299.448570001023	931.160925062213	282.739687173303	388.249944076245	783.299326976765	53.448280102393	398.907296400620	874.634350252033	28.254490745566	344.088847471360	970.964551350874	89.482198050321	391.403084359415	1076.465458141583	43.997093055646	403.672789265861	1097.473164705702	830.398751113589	597.991227638532	1044.723777485047	742.380698079228	662.018387234813	1144.361473063017	710.043393484613	602.588003826048	1177.952855304298	618.438318564602	652.316107167851	1144.290836119606	502.537379818324	621.762751522777	1064.884448064607	437.210194578585	699.226625959548	1128.389695004854	362.990936991208	628.681541208042	1015.432787673397	134.716446296402	603.589239986890	1089.443837158769	103.020132823843	681.074423282152	1193.460434219360	173.848144307231	673.888808914085	1298.041079553883	134.082757897226	678.744568527298	
3	14.624428571429	1022.176247170315	1018.485477630793	541.293766163920	1040.196981603144	966.617621824588	302.073776110491	1098.438101400312	1450.917762330354	413.947644745979	967.356993068177	1524.917473732230	552.278242638843	986.843413524781	1576.226934246806	367.278182000851	1086.194038247786	1510.089371828431	209.863729967184	1085.519205681878	1181.251790507723	90.360315647452	1238.057398462254	940.119924683709	137.724689019128	847.308293747370	1212.792936530904	682.384882892252	1072.183137133256	1029.955201449494	660.419895148767	1044.885022581941	743.882712959338	310.001728160073	964.920423073288	678.822368111384	273.475775077466	1030.707255008479	616.121247767506	336.537227645782	1018.064151881496	500.648318425545	345.774533112232	964.859591002467	403.054912820215	373.186182379472	890.796820791085	336.221106112745	299.933340267677	924.417631711907	282.817292898958	388.496013380041	775.306690131962	53.905745028888	399.116075060956	866.567438693163	28.449934832910	344.278916137609	962.992319874757	89.677020528665	391.291312520205	1068.388390534985	44.013071378514	403.549532207527	1099.886213574049	831.532949750164	595.829873796280	1050.027569567243	743.206654145625	661.820089803918	1148.395297421815	711.719527968848	599.916790259733	1184.021512496324	620.283446314710	648.887548436443	1149.150389080607	503.612377582447	619.342259102505	1072.006410531040	438.603047805715	698.797235812015	1133.261831252384	364.304095953290	626.494540589985	1018.845375327562	136.265939703324	604.329793844471	1094.802894235496	104.537128977727	679.783894730126	1198.659911226967	175.311833959596	669.791514734936	1303.274100150978	135.378393986670	672.053423808970	
4	14.641642857143	1021.423380538076	1017.670231682263	541.422490298813	1037.044330058996	966.702410946696	302.112694144374	1095.288676722952	1450.965568390488	413.631090766739	965.263105596142	1524.762210519266	553.191874283443	983.087478808775	1575.975424216267	367.973114923911	1080.953988404305	1509.926148095649	209.626515812103	1079.402898049037	1180.655565225593	91.035523301064	1232.079871172478	939.752876940484	139.135933458735	845.884732442460	1213.022644318593	684.758496197914	1070.797749079980	1030.242480733755	662.610229514881	1041.226507428602	743.489882220940	310.346262061876	960.436970920910	678.895582436391	274.236094643919	1026.154768135604	615.610223319501	336.671768051197	1012.582947628401	500.244573060288	345.800745382368	958.916317558926	402.930232399865	373.415446176342	884.074135203747	336.680984558672	300.440175514509	917.863341539138	282.897217705800	388.790460219445	767.464081440878	54.376141395541	399.361843406869	858.639628862906	28.667823238426	344.477923721090	955.158053310391	89.819813192828	391.235649856787	1060.448049820026	44.010289940720	403.444038317076	1102.022419783699	832.259226755807	593.305670505914	1054.661229927165	743.694597512378	661.522480739628	1151.830104482913	712.928218887452	597.338330204420	1189.218489344416	621.633627353334	645.578091493179	1153.361367307683	504.331449525372	616.962407216409	1078.297049116646	439.538631855166	698.213158162977	1137.541400675756	365.201216936341	624.352546698892	1022.035584470715	137.267734333859	604.867572297384	1099.756404708408	105.606824035901	678.503073951806	1203.389588723920	176.405430874364	665.965860718669	1308.044862475880	136.408761030550	665.904335485360	
